<?xml version="1.0" encoding="UTF-8" standalone="no"?>
<svg xmlns:cc="http://creativecommons.org/ns#" xmlns:dc="http://purl.org/dc/elements/1.1/"
    xmlns:inkscape="http://www.inkscape.org/namespaces/inkscape"
    xmlns:rdf="http://www.w3.org/1999/02/22-rdf-syntax-ns#"
    xmlns:sodipodi="http://sodipodi.sourceforge.net/DTD/sodipodi-0.dtd" height="512" id="svg8"
    version="1.1" viewBox="0 0 135.46666 135.46667" width="512" xmlns="http://www.w3.org/2000/svg"
    inkscape:export-filename="/Users/peter.rosenberg/develop/pete/public/AppConfigApp/assets/playIcon.png"
    inkscape:export-xdpi="96.000008" inkscape:export-ydpi="96.000008"
    inkscape:version="1.0beta2 (2b71d25, 2019-12-03)" sodipodi:docname="playIcon.svg">
    <defs id="defs2" />
    <sodipodi:namedview bordercolor="#666666" borderopacity="1.0" id="base" pagecolor="#ffffff"
        showgrid="false" units="px" inkscape:current-layer="layer1" inkscape:cx="292.50127"
        inkscape:cy="273.69031" inkscape:document-rotation="0" inkscape:document-units="mm"
        inkscape:pageopacity="0.0" inkscape:pageshadow="2" inkscape:window-height="701"
        inkscape:window-maximized="0" inkscape:window-width="1280" inkscape:window-x="0"
        inkscape:window-y="23" inkscape:zoom="0.70737049" />
    <metadata id="metadata5">
        <rdf:RDF>
            <cc:Work rdf:about="">
                <dc:format>image/svg+xml</dc:format>
                <dc:type rdf:resource="http://purl.org/dc/dcmitype/StillImage" />
                <dc:title></dc:title>
            </cc:Work>
        </rdf:RDF>
    </metadata>
    <g id="layer1" inkscape:groupmode="layer" inkscape:label="background">
        <rect
            style="opacity:0.995;fill:#ffffff;fill-opacity:1;stroke:none;stroke-width:0.301279;stroke-opacity:1"
            height="135.46666" id="rect885" width="135.46666" x="0" y="2.220446e-16" />
    </g>
    <g id="layer2" inkscape:groupmode="layer" inkscape:label="gear">
        <path
            style="color:#000000;font-style:normal;font-variant:normal;font-weight:normal;font-stretch:normal;font-size:medium;line-height:normal;font-family:sans-serif;font-variant-ligatures:normal;font-variant-position:normal;font-variant-caps:normal;font-variant-numeric:normal;font-variant-alternates:normal;font-feature-settings:normal;text-indent:0;text-align:start;text-decoration:none;text-decoration-line:none;text-decoration-style:solid;text-decoration-color:#000000;letter-spacing:normal;word-spacing:normal;text-transform:none;writing-mode:lr-tb;direction:ltr;text-orientation:mixed;dominant-baseline:auto;baseline-shift:baseline;text-anchor:start;white-space:normal;shape-padding:0;clip-rule:nonzero;display:inline;overflow:visible;visibility:visible;isolation:auto;mix-blend-mode:normal;color-interpolation:sRGB;color-interpolation-filters:linearRGB;solid-color:#000000;solid-opacity:1;vector-effect:none;fill:#000000;fill-opacity:1;fill-rule:nonzero;stroke:none;stroke-width:6.58661;stroke-linecap:round;stroke-linejoin:round;stroke-miterlimit:4;stroke-dasharray:none;stroke-dashoffset:0;stroke-opacity:1;paint-order:stroke fill markers;color-rendering:auto;image-rendering:auto;shape-rendering:auto;text-rendering:auto;enable-background:accumulate"
            d="m 61.146728,18.317692 c -1.41799,-7.46e-4 -2.677304,0.906152 -3.12606,2.251276 l -3.344769,10.034281 c -1.350414,0.47548 -2.671354,1.02054 -3.962259,1.640221 L 41.251828,27.515775 C 39.983826,26.882092 38.45263,27.13091 37.450386,28.133277 l -9.313878,9.313879 c -1.002367,1.002243 -1.251148,2.533439 -0.617502,3.801441 l 4.72126,9.442519 c -0.620988,1.297365 -1.170653,2.624205 -1.646656,3.981552 l -10.021424,3.344769 c -1.345111,0.448719 -2.252022,1.70807 -2.251288,3.12606 v 13.173228 c -7.34e-4,1.41799 0.906152,2.6773 2.251288,3.12606 l 10.053587,3.35119 c 0.473862,1.3423 1.017926,2.6531 1.633786,3.93653 l -4.740566,9.48112 c -0.633683,1.268 -0.384865,2.79919 0.617503,3.80144 l 9.313878,9.320305 c 1.002243,1.00237 2.533452,1.25114 3.801454,0.6175 l 9.461812,-4.73412 c 1.289573,0.61614 2.607102,1.1602 3.955836,1.63379 l 3.351192,10.04715 c 0.448719,1.34511 1.70807,2.25202 3.12606,2.25128 h 13.173223 c 1.41799,7.4e-4 2.677304,-0.90615 3.12606,-2.25128 l 3.351192,-10.06646 c 1.338714,-0.47174 2.64992,-1.01444 3.930095,-1.62735 l 9.487553,4.74699 c 1.268002,0.63369 2.799198,0.38487 3.801441,-0.6175 l 9.313878,-9.320295 c 1.00237,-1.00224 1.25115,-2.53345 0.6175,-3.80145 l -4.72768,-9.45539 c 0.61974,-1.29289 1.16455,-2.61619 1.64022,-3.96869 l 10.03428,-3.34476 c 1.34512,-0.44872 2.25203,-1.70807 2.25128,-3.12606 V 61.143497 c 7.5e-4,-1.41799 -0.90615,-2.677304 -2.25128,-3.12606 l -10.04071,-3.344769 c -0.47536,-1.348261 -1.02166,-2.667047 -1.64023,-3.955823 l 4.73414,-9.468248 c 0.63368,-1.268002 0.38486,-2.799198 -0.61751,-3.801441 L 98.016292,28.133277 C 97.014049,27.13091 95.482853,26.882129 94.214851,27.515775 l -9.436097,4.714837 c -1.301671,-0.622357 -2.632581,-1.17003 -3.994409,-1.646656 L 77.446011,20.568968 c -0.448719,-1.345112 -1.70807,-2.252022 -3.12606,-2.251276 z m 6.573741,26.339988 c 12.692889,0 23.072429,10.379465 23.072429,23.072425 0,12.69284 -10.37954,23.04669 -23.072429,23.04669 -12.692876,0 -23.046688,-10.35385 -23.046688,-23.04669 0,-12.69296 10.353812,-23.072425 23.046688,-23.072425 z"
            id="path940" inkscape:connector-curvature="0" />
    </g>
    <g id="layer4" inkscape:groupmode="layer" inkscape:label="tick background">
        <circle
            style="opacity:0.995;fill:#ffffff;fill-opacity:1;stroke:none;stroke-width:0.269324;stroke-opacity:1"
            cx="100.01003" cy="100.01003" id="path36" r="30.653061" />
    </g>
    <g id="layer3" inkscape:groupmode="layer" inkscape:label="tick">
        <path style="stroke-width:0.107517" class="st0"
            d="m 127.53432,100.01003 c 0,-15.202851 -12.32141,-27.52426 -27.52426,-27.52426 -15.202865,0 -27.524273,12.321409 -27.524273,27.52426 0,15.20286 12.321408,27.52426 27.524273,27.52426 15.20285,0 27.52426,-12.3214 27.52426,-27.52426 z M 121.05107,89.290619 95.139543,115.20213 v 0 l -1.849285,1.84929 -14.321217,-14.32122 6.321979,-6.321979 8.00999,8.009999 21.43883,-21.438826 z"
            id="path22" inkscape:connector-curvature="0" />
    </g>
    <style id="style20" type="text/css">
        .st0{fill:#41AD49;}
    </style>
</svg>
